<svg width="230" height="180" viewBox="0 0 230 180" fill="none" xmlns="http://www.w3.org/2000/svg">
<g clip-path="url(#clip0_1032_39996)">
<g opacity="0.2">
<path d="M188.986 -50.4259C185.955 -7.61926 178.756 35.3884 169.162 67.9126C163.327 87.6826 156.619 103.816 149.227 115.857C147.182 119.19 145.084 122.208 142.937 124.908C141.714 126.446 140.474 127.88 139.219 129.21C137.688 128.435 136.142 127.558 134.584 126.576C135.81 125.034 137.021 123.387 138.212 121.637C139.11 120.323 139.996 118.953 140.874 117.525C148.266 105.483 154.974 89.3502 160.809 69.5803C170.403 37.0561 177.602 -5.9493 180.633 -48.7583L188.986 -50.4259Z" fill="#CCD0DC"/>
<path d="M205.772 -53.7796C202.741 -10.9729 195.542 32.0348 185.948 64.5591C180.115 84.329 173.408 100.462 166.015 112.504C161.629 119.645 156.999 125.347 152.164 129.569C150.883 130.688 149.588 131.702 148.279 132.612C146.797 132.255 145.3 131.794 143.79 131.227C145.073 130.108 146.34 128.881 147.591 127.554C151.058 123.88 154.405 119.419 157.62 114.18C165.013 102.139 171.72 86.0058 177.553 66.2359C187.148 33.7116 194.347 -9.29606 197.377 -52.1027L205.772 -53.7796Z" fill="#CCD0DC"/>
<path d="M222.565 -57.1355C219.534 -14.3266 212.335 28.6811 202.74 61.2053C196.908 80.9753 190.2 97.1083 182.808 109.15C176.089 120.093 168.795 127.652 161.065 131.7C159.729 132.399 158.381 132.993 157.019 133.482C155.59 133.55 154.148 133.509 152.691 133.365C154.028 132.666 155.348 131.86 156.657 130.951C162.914 126.603 168.86 119.871 174.413 110.827C181.806 98.7851 188.513 82.6521 194.346 62.8822C203.941 30.358 211.139 -12.6498 214.17 -55.4587L222.565 -57.1355Z" fill="#CCD0DC"/>
<path d="M239.313 -60.48C236.283 -17.671 229.084 25.3344 219.489 57.8586C213.656 77.6285 206.949 93.7615 199.556 105.803C191.385 119.115 182.363 127.417 172.741 130.485C171.706 130.814 170.666 131.083 169.618 131.293L161.265 132.961C162.315 132.751 163.356 132.481 164.388 132.152C174.01 129.084 183.03 120.78 191.203 107.471C198.596 95.4292 205.303 79.2962 211.136 59.5263C220.731 27.0021 227.93 -16.0057 230.96 -58.8123L239.313 -60.48Z" fill="#CCD0DC"/>
<path d="M115.058 141.865C114.723 141.986 114.393 142.101 114.056 142.208C113.022 142.537 111.981 142.807 110.931 143.017C110.463 143.11 109.994 143.19 109.521 143.261C94.9014 145.422 78.7009 136.147 61.2054 115.61C58.7473 112.722 56.2638 109.615 53.7549 106.285C54.1542 102.387 54.6204 98.8074 55.1582 95.5383C56.9193 97.7063 58.7404 100.073 60.633 102.639C61.1247 103.306 61.6163 103.966 62.1079 104.617C81.3321 130.137 99.0999 142.626 115.058 141.865Z" fill="#CCD0DC"/>
<path d="M131.822 138.514C131.482 138.638 131.143 138.752 130.801 138.862C129.767 139.193 128.726 139.46 127.679 139.67C127.21 139.764 126.739 139.846 126.266 139.917C125.327 140.054 124.38 140.148 123.429 140.191H123.427C122.008 140.257 120.574 140.221 119.127 140.077C103.889 138.569 87.0929 125.472 69.025 100.962C67.1209 98.3806 65.2859 96.0001 63.5179 93.8207C61.2583 91.0337 59.1025 88.571 57.0391 86.419C57.7523 83.6639 58.5439 81.2355 59.4233 79.1246C61.3298 80.6804 63.3217 82.5377 65.4013 84.7102C69.092 88.555 73.0734 93.3867 77.4196 99.2852C93.761 121.454 109.064 134.286 123.113 137.651C124.588 138.003 126.049 138.252 127.496 138.398C128.953 138.542 130.395 138.583 131.822 138.514Z" fill="#CCD0DC"/>
<path d="M152.865 134.64L144.47 136.317C144.002 136.41 143.531 136.492 143.058 136.561C142.121 136.7 141.177 136.792 140.226 136.835C138.797 136.904 137.352 136.865 135.893 136.719C134.439 136.572 132.969 136.323 131.487 135.965C130.012 135.613 128.521 135.154 127.019 134.59C114.218 129.797 100.434 117.435 85.8167 97.6083C78.9986 88.3561 73.0806 81.7288 67.7904 77.4248C67.2203 76.9611 66.6571 76.5247 66.1009 76.1158C64.806 75.1609 63.5481 74.3545 62.3271 73.7011C63.3796 72.2071 64.5222 71.0237 65.757 70.1442C67.3242 70.464 68.9722 71.0877 70.694 72.0083C71.9242 72.6663 73.1937 73.4773 74.4978 74.439C80.2126 78.6539 86.6615 85.6832 94.2113 95.9314C107.102 113.419 119.347 125.097 130.841 130.898C132.371 131.672 133.89 132.342 135.392 132.906C136.904 133.472 138.4 133.934 139.884 134.288C141.366 134.644 142.836 134.896 144.29 135.042C145.749 135.186 147.191 135.227 148.623 135.158C149.573 135.113 150.517 135.021 151.455 134.884C151.925 134.816 152.396 134.733 152.865 134.64Z" fill="#CCD0DC"/>
<path d="M169.614 131.295L161.261 132.963C160.792 133.057 160.321 133.139 159.851 133.207C158.911 133.344 157.967 133.438 157.016 133.481C155.588 133.55 154.145 133.509 152.689 133.365C151.234 133.219 149.762 132.967 148.278 132.611C146.796 132.255 145.298 131.793 143.789 131.227C142.277 130.66 140.753 129.988 139.214 129.209C137.684 128.435 136.137 127.558 134.579 126.575C124.454 120.188 113.774 109.401 102.61 94.2546C95.0576 84.0064 88.6087 76.977 82.8938 72.7621C78.1484 69.2623 73.8922 67.7728 70.1993 68.3188C70.0354 68.3416 69.8715 68.3713 69.71 68.4033L78.063 66.7357C78.2246 66.7014 78.3884 66.674 78.5523 66.6488C82.2453 66.1029 86.5014 67.5923 91.2469 71.0922C96.9617 75.3093 103.411 82.3387 110.963 92.5846C120.405 105.394 129.501 115.087 138.208 121.636C139.796 122.831 141.37 123.921 142.932 124.908C144.497 125.895 146.05 126.776 147.59 127.553C149.127 128.33 150.653 129.002 152.162 129.568C153.674 130.135 155.17 130.594 156.654 130.95C158.138 131.304 159.606 131.556 161.062 131.7C162.521 131.843 163.964 131.882 165.392 131.811C166.336 131.768 167.273 131.677 168.204 131.54C168.677 131.469 169.145 131.389 169.614 131.295Z" fill="#CCD0DC"/>
<path d="M27.7348 76.7875C27.2316 76.888 26.7377 77.0273 26.2553 77.2078C25.4013 77.5254 24.5842 77.9594 23.8041 78.5145C17.4984 82.9944 13.5815 95.3192 11.5735 116.784C9.6185 137.646 9.64158 164.429 9.66697 192.784C9.69466 224.301 9.72236 256.894 6.96417 283.166C5.577 296.374 3.56896 307.041 0.907713 315.247C0.10911 317.707 -0.747195 319.948 -1.66582 321.97C-3.58385 320.499 -5.51112 318.815 -7.44531 316.917C-6.62363 314.385 -5.86657 311.619 -5.16722 308.617C-3.60463 301.889 -2.34902 293.971 -1.38885 284.836C1.36933 258.562 1.34164 225.971 1.31394 194.452C1.28855 166.097 1.26547 139.314 3.21813 118.454C5.47776 94.33 10.1447 81.7539 17.9023 78.8755C18.3847 78.6973 18.8786 78.5579 19.3818 78.4574L19.6264 78.4094L27.7348 76.7875Z" fill="#CCD0DC"/>
<path d="M44.5236 73.434C44.0182 73.5345 43.5265 73.6739 43.0441 73.8543C42.1832 74.1742 41.3592 74.6128 40.5745 75.1748C39.3396 76.0543 38.1971 77.2354 37.1423 78.7294C36.0921 80.2143 35.1296 82.0099 34.2503 84.1231C31.5082 90.7093 29.581 100.379 28.36 113.431C26.4073 134.293 26.4304 161.076 26.4558 189.431C26.4812 220.948 26.5112 253.541 23.753 279.812C21.5395 300.9 17.7404 315.5 12.2333 323.969C11.2316 325.506 10.1768 326.84 9.06194 327.976C7.53166 327.446 5.99677 326.772 4.45957 325.954C4.25646 325.847 4.05565 325.737 3.85254 325.623C4.8658 324.065 5.81904 322.299 6.71459 320.323C10.6961 311.562 13.5512 298.682 15.3561 281.489C18.1166 255.217 18.0866 222.625 18.0612 191.108C18.0335 162.753 18.0128 135.969 19.9654 115.108C21.5811 97.8483 24.4293 86.499 28.7616 80.3857C29.8118 78.903 30.9497 77.7265 32.1799 76.8516C32.9646 76.2896 33.7886 75.851 34.6496 75.5311C35.1297 75.3507 35.6236 75.2113 36.1267 75.1108L44.5236 73.434Z" fill="#CCD0DC"/>
<path d="M61.3179 70.0804C60.8124 70.1809 60.3208 70.3203 59.8384 70.4985C58.9751 70.8183 58.1511 71.2569 57.3664 71.8212C56.1316 72.7007 54.989 73.8841 53.9342 75.3781C52.8771 76.8699 51.9123 78.6746 51.0306 80.8015C50.1536 82.9124 49.3596 85.3408 48.6464 88.0936C47.9447 90.7984 47.3215 93.8185 46.7722 97.163C46.1352 101.031 45.5974 105.33 45.1542 110.077C43.2016 130.939 43.2246 157.72 43.25 186.075C43.2754 217.594 43.3054 250.187 40.5472 276.458C37.5144 305.337 31.5133 322.048 22.2117 327.51C22.0893 327.583 21.967 327.651 21.8447 327.72C20.6029 328.401 19.3566 328.983 18.1033 329.459C16.6861 329.491 15.2643 329.397 13.8379 329.173C15.1004 328.431 16.3029 327.478 17.4408 326.317C24.7044 318.932 29.5353 303.07 32.1504 278.135C34.9109 251.864 34.8809 219.271 34.8555 187.754C34.8278 159.397 34.807 132.616 36.7597 111.754C37.5906 102.881 38.7469 95.5707 40.2634 89.7293C40.9719 86.9925 41.7613 84.5778 42.6361 82.4783C43.5178 80.3515 44.4826 78.5467 45.5397 77.0549C46.5922 75.5609 47.7347 74.3798 48.9695 73.498C49.7566 72.936 50.5806 72.4951 51.4438 72.1753C51.9239 71.9971 52.4178 71.8577 52.921 71.7572L61.3179 70.0804Z" fill="#CCD0DC"/>
<path d="M78.0662 66.7357C77.5631 66.8362 77.0691 66.9756 76.5867 67.1538C75.7304 67.4713 74.9134 67.9053 74.1332 68.4628C72.8984 69.34 71.7559 70.5188 70.6988 72.0083C69.644 73.4978 68.6769 75.3002 67.7952 77.4248C66.9158 79.5334 66.1218 81.9595 65.4063 84.71C64.7023 87.4263 64.0745 90.4601 63.5229 93.8205C62.9805 97.1033 62.5119 100.699 62.1103 104.617C62.0388 105.312 61.9695 106.017 61.9026 106.732C61.6349 109.586 61.4063 112.546 61.2079 115.61C59.9569 134.946 59.9776 158.252 59.9984 182.73C60.0261 214.249 60.0538 246.84 57.2956 273.114C54.2235 302.369 48.1048 319.137 38.5931 324.373C35.9826 325.81 33.3421 326.795 30.6763 327.327L22.3232 328.995C24.9891 328.462 27.6296 327.478 30.24 326.043C39.7517 320.807 45.8705 304.039 48.9426 274.781C51.7008 248.51 51.6731 215.917 51.6454 184.398C51.62 156.043 51.5969 129.262 53.5496 108.4C53.6165 107.685 53.6857 106.979 53.7573 106.285C54.1566 102.387 54.6228 98.8076 55.1606 95.5385C55.7123 92.1757 56.3401 89.1374 57.044 86.4188C57.7572 83.6637 58.5489 81.2353 59.4283 79.1244C60.31 76.9976 61.2748 75.1928 62.3319 73.7011C63.3844 72.207 64.5269 71.0237 65.7617 70.1441C66.5488 69.5799 67.3728 69.1413 68.2337 68.8214C68.7161 68.6432 69.21 68.5039 69.7132 68.4034L78.0662 66.7357Z" fill="#CCD0DC"/>
</g>
</g>
<defs>
<clipPath id="clip0_1032_39996">
<path d="M0.333008 40C0.333008 21.1438 0.333008 11.7157 6.19087 5.85786C12.0487 0 21.4768 0 40.333 0H189.666C208.523 0 217.951 0 223.808 5.85786C229.666 11.7157 229.666 21.1438 229.666 40V140C229.666 158.856 229.666 168.284 223.808 174.142C217.951 180 208.523 180 189.666 180H40.333C21.4768 180 12.0487 180 6.19087 174.142C0.333008 168.284 0.333008 158.856 0.333008 140V40Z" fill="white"/>
</clipPath>
</defs>
</svg>
