<svg width="24" height="24" viewBox="0 0 24 24" fill="none" xmlns="http://www.w3.org/2000/svg">
<path fill-rule="evenodd" clip-rule="evenodd" d="M2.24876 2.29242C1.85799 2.15503 1.42984 2.36044 1.29245 2.7512C1.15507 3.14197 1.36047 3.57012 1.75124 3.7075L2.01245 3.79934C2.68006 4.03406 3.11881 4.18961 3.44165 4.34802C3.74488 4.4968 3.87855 4.61723 3.96661 4.74609C4.05687 4.87818 4.12657 5.0596 4.1659 5.42295C4.20706 5.80316 4.20808 6.29837 4.20808 7.03832V9.75996C4.20808 11.2125 4.2217 12.2598 4.35876 13.0601C4.50508 13.9144 4.79721 14.526 5.34345 15.1022C5.93731 15.7285 6.69012 16.0012 7.58636 16.1283C8.44459 16.25 9.53444 16.25 10.8801 16.25L16.2859 16.25C17.0276 16.25 17.6516 16.25 18.1566 16.1882C18.6923 16.1226 19.1809 15.9793 19.6074 15.6318C20.0339 15.2842 20.2729 14.8346 20.4453 14.3231C20.6077 13.841 20.7337 13.2299 20.8834 12.5034L21.3923 10.0341L21.3933 10.0295L21.4037 9.97723C21.5684 9.15234 21.7069 8.45845 21.7414 7.90034C21.7775 7.31414 21.7108 6.73613 21.329 6.23974C21.094 5.93432 20.7636 5.76141 20.4632 5.65583C20.1567 5.54814 19.8101 5.48584 19.4604 5.44674C18.7733 5.36993 17.9387 5.36995 17.12 5.36996L5.66788 5.36996C5.66459 5.33321 5.66104 5.29706 5.65719 5.26153C5.60346 4.76515 5.48704 4.31243 5.20507 3.89979C4.92088 3.48393 4.54304 3.21759 4.1024 3.00139C3.69032 2.79919 3.16668 2.61511 2.55016 2.39838L2.24876 2.29242ZM5.70807 6.86996H8.3037L9.69359 14.746C8.91075 14.738 8.29832 14.7143 7.79696 14.6432C7.08214 14.5418 6.70452 14.3576 6.43198 14.0701C6.11181 13.7324 5.93913 13.4018 5.83723 12.8068C5.72607 12.1578 5.70808 11.249 5.70808 9.75996L5.70807 6.86996ZM11.2175 14.75H14.2825L15.6731 6.86996H9.82688L11.2175 14.75ZM15.8057 14.75L17.1963 6.86997C18.0083 6.87016 18.7239 6.87376 19.2937 6.93745C19.5893 6.97049 19.8105 7.01639 19.9659 7.07101C20.0929 7.11565 20.1359 7.1521 20.1421 7.15737C20.2035 7.23878 20.2702 7.38648 20.2442 7.80793C20.2168 8.2515 20.1003 8.84376 19.9227 9.73369L19.9223 9.73591L19.4235 12.156C19.2621 12.9389 19.1535 13.4592 19.0238 13.8441C18.9007 14.2095 18.785 14.3669 18.6598 14.469C18.5346 14.571 18.3571 14.6525 17.9744 14.6993C17.5712 14.7487 17.0397 14.75 16.2404 14.75H15.8057Z" fill="#005828"/>
<path fill-rule="evenodd" clip-rule="evenodd" d="M7.5 21.75C6.25736 21.75 5.25 20.7426 5.25 19.5C5.25 18.2573 6.25736 17.25 7.5 17.25C8.74264 17.25 9.75 18.2573 9.75 19.5C9.75 20.7426 8.74264 21.75 7.5 21.75ZM6.75 19.5C6.75 19.9142 7.08578 20.25 7.5 20.25C7.91421 20.25 8.25 19.9142 8.25 19.5C8.25 19.0857 7.91421 18.75 7.5 18.75C7.08578 18.75 6.75 19.0857 6.75 19.5Z" fill="#005828"/>
<path fill-rule="evenodd" clip-rule="evenodd" d="M16.5 21.75C15.2574 21.75 14.25 20.7427 14.25 19.5C14.25 18.2574 15.2574 17.25 16.5 17.25C17.7426 17.25 18.75 18.2574 18.75 19.5C18.75 20.7427 17.7426 21.75 16.5 21.75ZM15.75 19.5C15.75 19.9142 16.0858 20.25 16.5 20.25C16.9142 20.25 17.25 19.9142 17.25 19.5C17.25 19.0858 16.9142 18.75 16.5 18.75C16.0858 18.75 15.75 19.0858 15.75 19.5Z" fill="#005828"/>
</svg>
