<svg width="24" height="24" viewBox="0 0 24 24" fill="none" xmlns="http://www.w3.org/2000/svg">
<path fill-rule="evenodd" clip-rule="evenodd" d="M10.948 1.25H13.052C13.9505 1.24997 14.6997 1.24995 15.2945 1.32991C15.9223 1.41432 16.4891 1.59999 16.9445 2.05546C17.4 2.51093 17.5857 3.07773 17.6701 3.70552C17.7501 4.30031 17.75 5.04953 17.75 5.94801L17.75 7.28108L18.5895 7.73883C19.7944 8.39587 20.5442 9.6587 20.5442 11.0312V15.9688C20.5442 17.3413 19.7945 18.6041 18.5895 19.2612L13.7952 21.8754C12.6762 22.4855 11.3238 22.4855 10.2048 21.8754L5.41053 19.2612C4.20555 18.6041 3.45577 17.3413 3.45577 15.9688V11.0312C3.45577 9.6587 4.20555 8.39587 5.41053 7.73883L6.25 7.28108L6.25 5.948C6.24997 5.04952 6.24995 4.3003 6.32991 3.70552C6.41432 3.07773 6.59999 2.51093 7.05546 2.05546C7.51093 1.59999 8.07773 1.41432 8.70552 1.32991C9.3003 1.24995 10.0495 1.24997 10.948 1.25ZM7.75 6.46317L10.2048 5.12465C11.3238 4.51446 12.6762 4.51446 13.7952 5.12465L16.25 6.46317V6C16.25 5.03599 16.2484 4.38843 16.1835 3.90539C16.1214 3.44393 16.0142 3.24644 15.8839 3.11612C15.7536 2.9858 15.5561 2.87858 15.0946 2.81654C14.6116 2.7516 13.964 2.75 13 2.75H11C10.036 2.75 9.38843 2.7516 8.90539 2.81654C8.44393 2.87858 8.24643 2.9858 8.11612 3.11612C7.9858 3.24644 7.87858 3.44393 7.81654 3.90539C7.75159 4.38843 7.75 5.03599 7.75 6V6.46317ZM13.0771 6.44159C12.4057 6.07548 11.5943 6.07548 10.9229 6.44159L6.12863 9.05577C5.40564 9.45 4.95577 10.2077 4.95577 11.0312V15.9688C4.95577 16.7923 5.40564 17.55 6.12863 17.9442L10.9229 20.5584C11.5943 20.9245 12.4057 20.9245 13.0771 20.5584L17.8714 17.9442C18.5944 17.55 19.0442 16.7923 19.0442 15.9688V11.0312C19.0442 10.2077 18.5944 9.45 17.8714 9.05577L13.0771 6.44159ZM12 11.5346C11.9419 11.6353 11.8772 11.7512 11.801 11.8878L11.7027 12.0642C11.6958 12.0767 11.6884 12.0903 11.6804 12.1048C11.6019 12.2484 11.4718 12.4863 11.255 12.6509C11.0336 12.8189 10.7673 12.8767 10.6116 12.9106C10.596 12.9139 10.5815 12.9171 10.5683 12.9201L10.3774 12.9633C10.2022 13.0029 10.0595 13.0353 9.9375 13.0659C10.0169 13.1636 10.1199 13.2849 10.254 13.4417L10.3842 13.5939C10.3934 13.6047 10.4035 13.6162 10.4141 13.6286C10.5221 13.7529 10.6963 13.9536 10.7769 14.2128C10.8566 14.4688 10.8291 14.7326 10.8118 14.899C10.81 14.9156 10.8084 14.9312 10.807 14.9458L10.7873 15.1488C10.7691 15.3371 10.7549 15.4873 10.7455 15.6095C10.8497 15.5636 10.9682 15.5091 11.109 15.4443L11.2878 15.362C11.3001 15.3563 11.3136 15.3499 11.3281 15.3431C11.4716 15.2754 11.7213 15.1576 12 15.1576C12.2787 15.1576 12.5284 15.2754 12.6719 15.3431C12.6864 15.3499 12.6999 15.3563 12.7122 15.362L12.891 15.4443C13.0318 15.5091 13.1503 15.5636 13.2545 15.6095C13.2451 15.4873 13.2309 15.3371 13.2127 15.1488L13.193 14.9458C13.1916 14.9312 13.19 14.9156 13.1882 14.899C13.1709 14.7326 13.1434 14.4689 13.2231 14.2128C13.3037 13.9536 13.4779 13.7529 13.5859 13.6286C13.5965 13.6162 13.6066 13.6047 13.6158 13.5939L13.746 13.4417C13.8801 13.2849 13.9831 13.1636 14.0625 13.0659C13.9405 13.0353 13.7978 13.0029 13.6226 12.9633L13.4317 12.9201C13.4185 12.9171 13.404 12.9139 13.3884 12.9106C13.2327 12.8767 12.9664 12.8189 12.745 12.6509C12.5282 12.4863 12.3981 12.2484 12.3196 12.1048C12.3116 12.0902 12.3042 12.0767 12.2973 12.0642L12.199 11.8878C12.1228 11.7512 12.0581 11.6353 12 11.5346ZM11.0135 10.2998C11.1857 10.075 11.4983 9.75016 12 9.75016C12.5017 9.75016 12.8143 10.075 12.9865 10.2998C13.1508 10.5144 13.3163 10.8114 13.486 11.1159C13.4937 11.1298 13.5014 11.1436 13.5091 11.1575L13.6075 11.3339C13.6303 11.3748 13.6482 11.4069 13.6639 11.4345C13.6912 11.4409 13.723 11.4481 13.7627 11.4571L13.9536 11.5003C13.9693 11.5038 13.9849 11.5073 14.0006 11.5109C14.3284 11.5849 14.6542 11.6586 14.9042 11.7571C15.1804 11.8659 15.5547 12.0779 15.6989 12.5418C15.8407 12.9975 15.6618 13.3835 15.5056 13.6316C15.3611 13.8612 15.1414 14.118 14.9165 14.3809C14.9063 14.3928 14.8961 14.4047 14.886 14.4166L14.7558 14.5688C14.7213 14.6091 14.6953 14.6395 14.6735 14.6658C14.6764 14.7022 14.6805 14.7445 14.686 14.8011L14.7057 15.0041C14.7072 15.0196 14.7087 15.0351 14.7102 15.0505C14.7444 15.4025 14.7774 15.7426 14.7653 16.0146C14.7526 16.2999 14.6841 16.7317 14.2969 17.0256C13.8975 17.3288 13.4564 17.2627 13.1767 17.1826C12.919 17.1087 12.6144 16.9684 12.3077 16.8271C12.293 16.8203 12.2783 16.8135 12.2636 16.8068L12.0849 16.7245C12.0514 16.7091 12.024 16.6964 12 16.6856C11.9761 16.6964 11.9486 16.7091 11.9151 16.7245L11.7364 16.8068C11.7217 16.8135 11.707 16.8203 11.6923 16.8271C11.3856 16.9684 11.081 17.1087 10.8233 17.1826C10.5436 17.2627 10.1025 17.3288 9.70306 17.0256C9.3159 16.7317 9.24743 16.2999 9.23473 16.0146C9.22261 15.7426 9.25564 15.4025 9.28981 15.0506C9.29131 15.0351 9.29282 15.0196 9.29432 15.0041L9.31399 14.8011C9.31948 14.7445 9.32356 14.7022 9.32655 14.6658C9.30465 14.6395 9.27867 14.6091 9.24418 14.5688L9.11403 14.4166C9.10385 14.4047 9.09367 14.3928 9.08351 14.3809C8.85859 14.118 8.63891 13.8612 8.49436 13.6316C8.33817 13.3835 8.15934 12.9975 8.30106 12.5418C8.44532 12.0779 8.81962 11.8659 9.09576 11.7571C9.34584 11.6586 9.67163 11.5849 9.99943 11.5109C10.0151 11.5073 10.0307 11.5038 10.0464 11.5003L10.2373 11.4571C10.277 11.4481 10.3088 11.4409 10.3361 11.4345C10.3518 11.4069 10.3697 11.3748 10.3925 11.3339L10.4909 11.1575C10.4986 11.1436 10.5063 11.1298 10.514 11.1159C10.6837 10.8114 10.8492 10.5144 11.0135 10.2998Z" fill="#005828"/>
</svg>
